<mxfile host="Electron" agent="Mozilla/5.0 (Windows NT 10.0; Win64; x64) AppleWebKit/537.36 (KHTML, like Gecko) draw.io/28.2.5 Chrome/138.0.7204.251 Electron/37.6.1 Safari/537.36" version="28.2.5">
  <diagram name="Page-1" id="s-YXNm4O8HRc2U2nFG0R">
    <mxGraphModel dx="1678" dy="989" grid="1" gridSize="10" guides="1" tooltips="1" connect="1" arrows="1" fold="1" page="1" pageScale="1" pageWidth="1920" pageHeight="1200" math="0" shadow="0">
      <root>
        <mxCell id="0" />
        <mxCell id="1" parent="0" />
        <mxCell id="mWO_9v37EQ_afqHenSyk-1" value="&lt;font style=&quot;font-size: 50px;&quot;&gt;Data Flow Diagram&lt;/font&gt;" style="text;html=1;align=center;verticalAlign=middle;resizable=0;points=[];autosize=1;strokeColor=none;fillColor=none;" vertex="1" parent="1">
          <mxGeometry x="740" y="110" width="450" height="70" as="geometry" />
        </mxCell>
        <mxCell id="mWO_9v37EQ_afqHenSyk-2" value="" style="rounded=0;whiteSpace=wrap;html=1;fillColor=none;dashed=1;" vertex="1" parent="1">
          <mxGeometry x="350" y="260" width="310" height="760" as="geometry" />
        </mxCell>
        <mxCell id="mWO_9v37EQ_afqHenSyk-4" value="&lt;font style=&quot;font-size: 40px;&quot;&gt;Sources&lt;/font&gt;" style="rounded=1;whiteSpace=wrap;html=1;strokeColor=none;" vertex="1" parent="1">
          <mxGeometry x="420" y="230" width="180" height="60" as="geometry" />
        </mxCell>
        <mxCell id="mWO_9v37EQ_afqHenSyk-21" style="edgeStyle=orthogonalEdgeStyle;rounded=0;orthogonalLoop=1;jettySize=auto;html=1;entryX=0;entryY=0.5;entryDx=0;entryDy=0;" edge="1" parent="1" source="mWO_9v37EQ_afqHenSyk-5" target="mWO_9v37EQ_afqHenSyk-12">
          <mxGeometry relative="1" as="geometry" />
        </mxCell>
        <mxCell id="mWO_9v37EQ_afqHenSyk-22" style="edgeStyle=orthogonalEdgeStyle;rounded=0;orthogonalLoop=1;jettySize=auto;html=1;entryX=0;entryY=0.5;entryDx=0;entryDy=0;" edge="1" parent="1" source="mWO_9v37EQ_afqHenSyk-5" target="mWO_9v37EQ_afqHenSyk-11">
          <mxGeometry relative="1" as="geometry" />
        </mxCell>
        <mxCell id="mWO_9v37EQ_afqHenSyk-23" style="edgeStyle=orthogonalEdgeStyle;rounded=0;orthogonalLoop=1;jettySize=auto;html=1;entryX=0;entryY=0.5;entryDx=0;entryDy=0;" edge="1" parent="1" source="mWO_9v37EQ_afqHenSyk-5" target="mWO_9v37EQ_afqHenSyk-13">
          <mxGeometry relative="1" as="geometry" />
        </mxCell>
        <mxCell id="mWO_9v37EQ_afqHenSyk-5" value="" style="image;aspect=fixed;html=1;points=[];align=center;fontSize=12;image=img/lib/azure2/general/Folder_Blank.svg;" vertex="1" parent="1">
          <mxGeometry x="437.23" y="485" width="135.54" height="110" as="geometry" />
        </mxCell>
        <mxCell id="mWO_9v37EQ_afqHenSyk-6" value="&lt;font style=&quot;font-size: 28px;&quot;&gt;CRM&lt;/font&gt;" style="text;html=1;align=center;verticalAlign=middle;whiteSpace=wrap;rounded=0;" vertex="1" parent="1">
          <mxGeometry x="475" y="620" width="60" height="30" as="geometry" />
        </mxCell>
        <mxCell id="mWO_9v37EQ_afqHenSyk-26" style="edgeStyle=orthogonalEdgeStyle;rounded=0;orthogonalLoop=1;jettySize=auto;html=1;entryX=0;entryY=0.5;entryDx=0;entryDy=0;" edge="1" parent="1" source="mWO_9v37EQ_afqHenSyk-7" target="mWO_9v37EQ_afqHenSyk-19">
          <mxGeometry relative="1" as="geometry" />
        </mxCell>
        <mxCell id="mWO_9v37EQ_afqHenSyk-27" style="edgeStyle=orthogonalEdgeStyle;rounded=0;orthogonalLoop=1;jettySize=auto;html=1;entryX=0;entryY=0.5;entryDx=0;entryDy=0;" edge="1" parent="1" source="mWO_9v37EQ_afqHenSyk-7" target="mWO_9v37EQ_afqHenSyk-18">
          <mxGeometry relative="1" as="geometry" />
        </mxCell>
        <mxCell id="mWO_9v37EQ_afqHenSyk-28" style="edgeStyle=orthogonalEdgeStyle;rounded=0;orthogonalLoop=1;jettySize=auto;html=1;entryX=0;entryY=0.5;entryDx=0;entryDy=0;" edge="1" parent="1" source="mWO_9v37EQ_afqHenSyk-7" target="mWO_9v37EQ_afqHenSyk-20">
          <mxGeometry relative="1" as="geometry" />
        </mxCell>
        <mxCell id="mWO_9v37EQ_afqHenSyk-7" value="" style="image;aspect=fixed;html=1;points=[];align=center;fontSize=12;image=img/lib/azure2/general/Folder_Blank.svg;" vertex="1" parent="1">
          <mxGeometry x="437.23" y="775" width="135.54" height="110" as="geometry" />
        </mxCell>
        <mxCell id="mWO_9v37EQ_afqHenSyk-8" value="&lt;font style=&quot;font-size: 28px;&quot;&gt;ERP&lt;/font&gt;" style="text;html=1;align=center;verticalAlign=middle;whiteSpace=wrap;rounded=0;" vertex="1" parent="1">
          <mxGeometry x="475" y="895" width="60" height="30" as="geometry" />
        </mxCell>
        <mxCell id="mWO_9v37EQ_afqHenSyk-9" value="" style="rounded=1;whiteSpace=wrap;html=1;fillColor=#ffe6cc;strokeColor=#d79b00;" vertex="1" parent="1">
          <mxGeometry x="790" y="360" width="340" height="660" as="geometry" />
        </mxCell>
        <mxCell id="mWO_9v37EQ_afqHenSyk-10" value="&lt;font style=&quot;font-size: 40px;&quot;&gt;Bronze Layer&lt;/font&gt;" style="rounded=1;whiteSpace=wrap;html=1;fillColor=#ffe6cc;strokeColor=#d79b00;" vertex="1" parent="1">
          <mxGeometry x="805" y="260" width="310" height="80" as="geometry" />
        </mxCell>
        <mxCell id="mWO_9v37EQ_afqHenSyk-11" value="&lt;font style=&quot;font-size: 24px;&quot;&gt;crm_cust_info&lt;/font&gt;" style="rounded=1;whiteSpace=wrap;html=1;fillColor=#ffe6cc;strokeColor=#d79b00;" vertex="1" parent="1">
          <mxGeometry x="805" y="430" width="310" height="60" as="geometry" />
        </mxCell>
        <mxCell id="mWO_9v37EQ_afqHenSyk-12" value="&lt;font style=&quot;font-size: 24px;&quot;&gt;crm_prd_info&lt;/font&gt;" style="rounded=1;whiteSpace=wrap;html=1;fillColor=#ffe6cc;strokeColor=#d79b00;" vertex="1" parent="1">
          <mxGeometry x="805" y="510" width="310" height="60" as="geometry" />
        </mxCell>
        <mxCell id="mWO_9v37EQ_afqHenSyk-13" value="&lt;font style=&quot;font-size: 24px;&quot;&gt;crm_sales_details&lt;/font&gt;" style="rounded=1;whiteSpace=wrap;html=1;fillColor=#ffe6cc;strokeColor=#d79b00;" vertex="1" parent="1">
          <mxGeometry x="805" y="590" width="310" height="60" as="geometry" />
        </mxCell>
        <mxCell id="mWO_9v37EQ_afqHenSyk-18" value="&lt;font style=&quot;font-size: 24px;&quot;&gt;erp_cust_az12&lt;/font&gt;" style="rounded=1;whiteSpace=wrap;html=1;fillColor=#ffe6cc;strokeColor=#d79b00;" vertex="1" parent="1">
          <mxGeometry x="805" y="720" width="310" height="60" as="geometry" />
        </mxCell>
        <mxCell id="mWO_9v37EQ_afqHenSyk-19" value="&lt;font style=&quot;font-size: 24px;&quot;&gt;erp_loc_a101&lt;/font&gt;" style="rounded=1;whiteSpace=wrap;html=1;fillColor=#ffe6cc;strokeColor=#d79b00;" vertex="1" parent="1">
          <mxGeometry x="805" y="800" width="310" height="60" as="geometry" />
        </mxCell>
        <mxCell id="mWO_9v37EQ_afqHenSyk-20" value="&lt;font style=&quot;font-size: 24px;&quot;&gt;erp_px_cat_g1v2&lt;/font&gt;" style="rounded=1;whiteSpace=wrap;html=1;fillColor=#ffe6cc;strokeColor=#d79b00;" vertex="1" parent="1">
          <mxGeometry x="805" y="880" width="310" height="60" as="geometry" />
        </mxCell>
      </root>
    </mxGraphModel>
  </diagram>
</mxfile>
